<svg width="10" height="17" viewBox="0 0 10 17" fill="none" xmlns="http://www.w3.org/2000/svg">
<path d="M8.80821 9.46718C9.37256 8.90283 9.37256 7.98784 8.80821 7.42349C8.24386 6.85915 7.32887 6.85915 6.76453 7.42349L0.633478 13.5545C0.0691309 14.1189 0.0691314 15.0339 0.633479 15.5982C1.19783 16.1626 2.11281 16.1626 2.67716 15.5982L8.80821 9.46718Z" fill="#3E47B0"/>
<path d="M8.80821 9.46718C9.37256 8.90283 9.37256 7.98784 8.80821 7.42349C8.24386 6.85915 7.32887 6.85915 6.76453 7.42349L0.633478 13.5545C0.0691309 14.1189 0.0691314 15.0339 0.633479 15.5982C1.19783 16.1626 2.11281 16.1626 2.67716 15.5982L8.80821 9.46718Z" fill="#3E47B0"/>
<path d="M8.80821 9.46718C9.37256 8.90283 9.37256 7.98784 8.80821 7.42349C8.24386 6.85915 7.32887 6.85915 6.76453 7.42349L0.633478 13.5545C0.0691309 14.1189 0.0691314 15.0339 0.633479 15.5982C1.19783 16.1626 2.11281 16.1626 2.67716 15.5982L8.80821 9.46718Z" fill="#546276"/>
<path d="M8.80821 9.46718C9.37256 8.90283 9.37256 7.98784 8.80821 7.42349C8.24386 6.85915 7.32887 6.85915 6.76453 7.42349L0.633478 13.5545C0.0691309 14.1189 0.0691314 15.0339 0.633479 15.5982C1.19783 16.1626 2.11281 16.1626 2.67716 15.5982L8.80821 9.46718Z" fill="#4187F2"/>
<path d="M8.80821 9.46718C9.37256 8.90283 9.37256 7.98784 8.80821 7.42349C8.24386 6.85915 7.32887 6.85915 6.76453 7.42349L0.633478 13.5545C0.0691309 14.1189 0.0691314 15.0339 0.633479 15.5982C1.19783 16.1626 2.11281 16.1626 2.67716 15.5982L8.80821 9.46718Z" fill="#546276"/>
<path d="M6.76451 9.46713C7.32886 10.0315 8.24386 10.0315 8.80821 9.46718C9.37256 8.90283 9.37256 7.98784 8.80821 7.42349L2.67715 1.2924C2.1128 0.728054 1.19781 0.728054 0.633466 1.2924C0.0691183 1.85675 0.0691183 2.77174 0.633465 3.33608L6.76451 9.46713Z" fill="#3E47B0"/>
<path d="M6.76451 9.46713C7.32886 10.0315 8.24386 10.0315 8.80821 9.46718C9.37256 8.90283 9.37256 7.98784 8.80821 7.42349L2.67715 1.2924C2.1128 0.728054 1.19781 0.728054 0.633466 1.2924C0.0691183 1.85675 0.0691183 2.77174 0.633465 3.33608L6.76451 9.46713Z" fill="#3E47B0"/>
<path d="M6.76451 9.46713C7.32886 10.0315 8.24386 10.0315 8.80821 9.46718C9.37256 8.90283 9.37256 7.98784 8.80821 7.42349L2.67715 1.2924C2.1128 0.728054 1.19781 0.728054 0.633466 1.2924C0.0691183 1.85675 0.0691183 2.77174 0.633465 3.33608L6.76451 9.46713Z" fill="#546276"/>
<path d="M6.76451 9.46713C7.32886 10.0315 8.24386 10.0315 8.80821 9.46718C9.37256 8.90283 9.37256 7.98784 8.80821 7.42349L2.67715 1.2924C2.1128 0.728054 1.19781 0.728054 0.633466 1.2924C0.0691183 1.85675 0.0691183 2.77174 0.633465 3.33608L6.76451 9.46713Z" fill="#4187F2"/>
<path d="M6.76451 9.46713C7.32886 10.0315 8.24386 10.0315 8.80821 9.46718C9.37256 8.90283 9.37256 7.98784 8.80821 7.42349L2.67715 1.2924C2.1128 0.728054 1.19781 0.728054 0.633466 1.2924C0.0691183 1.85675 0.0691183 2.77174 0.633465 3.33608L6.76451 9.46713Z" fill="#546276"/>
</svg>
